<?xml version="1.0" ?><svg viewBox="0 0 60 60" xmlns="http://www.w3.org/2000/svg"><title/><g data-name="Layer 1" id="Layer_1"><path d="M12.98376,11.717A10.94441,10.94441,0,0,1,24.92554,7.40277a22.82591,22.82591,0,0,0-7.52515-2.35248,24.253,24.253,0,0,1-5.6778-1.54881,1.00185,1.00185,0,0,0-1.44412.75694A7.97259,7.97259,0,0,0,12.98376,11.717Z"/><path d="M37.41216,20.94379a3.00191,3.00191,0,1,0-2.35595-2.35595A3.006,3.006,0,0,0,37.41216,20.94379ZM38,17a1,1,0,1,1-1,1A1,1,0,0,1,38,17Z"/><path d="M32.91113,25.41565A8.90827,8.90827,0,0,0,37.6972,26.995a9.10579,9.10579,0,0,0,9.297-8.67038A9.00014,9.00014,0,0,0,30.7998,12.6001l-.01074.00854a.99189.99189,0,0,1-1.57812,0l-.01074-.00854a8.92484,8.92484,0,0,0-6.876-3.59445A9.1078,9.1078,0,0,0,13.00531,17.688,9.00971,9.00971,0,0,0,22,27a8.91244,8.91244,0,0,0,5.08887-1.58435l-.01758-.04407A1.0076,1.0076,0,0,1,27,25a3,3,0,0,1,6,0,1.0076,1.0076,0,0,1-.07129.37158Zm-9.55288-2.59571a5.01738,5.01738,0,0,1-6.1782-6.1782,4.9327,4.9327,0,0,1,3.46169-3.46169,5.01738,5.01738,0,0,1,6.1782,6.1782A4.9327,4.9327,0,0,1,23.35825,22.81994Zm13.2835-9.63989a5.01738,5.01738,0,0,1,6.1782,6.1782,4.9327,4.9327,0,0,1-3.46169,3.46169,5.01738,5.01738,0,0,1-6.1782-6.1782A4.9327,4.9327,0,0,1,36.64175,13.18006Z"/><path d="M29.0127,24.83936,30,27.30762l.9873-2.46826a1.00034,1.00034,0,0,0-1.97461,0Z"/><path d="M18.168,48.44531l.02954.01965c-.11475-.13824-.23145-.27313-.344-.41516-4.81567-6.0802-6.66675-14.18652-5.19556-22.47754C9.728,26.84814,7.97888,28.76935,7.47461,31.312c-1.18683,5.98062,4.31571,14.08682,8.457,18.32461a.99775.99775,0,0,0,1.54314-.15176Z"/><path d="M30,9.73828A11.85425,11.85425,0,0,1,35.64331,4.881,14.12069,14.12069,0,0,0,30,4a14.12069,14.12069,0,0,0-5.64331.881A11.85425,11.85425,0,0,1,30,9.73828Z"/><path d="M52.52539,31.312c-.50427-2.54272-2.25342-4.46387-5.18335-5.73975,1.47119,8.291-.37988,16.39734-5.19556,22.47754-.11255.142-.22925.27692-.344.41516l.02954-.01965.6932,1.03955a.99775.99775,0,0,0,1.54314.15176C48.20968,45.39883,53.71222,37.29263,52.52539,31.312Z"/><path d="M38,7a10.98937,10.98937,0,0,1,9.01624,4.717,7.97259,7.97259,0,0,0,2.7053-7.45856,1.00185,1.00185,0,0,0-1.44412-.75694,24.253,24.253,0,0,1-5.6778,1.54881,22.82591,22.82591,0,0,0-7.52515,2.35248A11.08352,11.08352,0,0,1,38,7Z"/><path d="M22.58784,15.05621a3.00191,3.00191,0,1,0,2.35595,2.35595A3.006,3.006,0,0,0,22.58784,15.05621ZM22,19a1,1,0,1,1,1-1A1,1,0,0,1,22,19Z"/><path d="M38.29,52.19141c-1.394-.19525-1.95532-.32965-2.249-1.209a18.99637,18.99637,0,0,0,4.53711-4.17432,25.98718,25.98718,0,0,0,4.82422-20.69519,10.964,10.964,0,0,1-13.25171,1.204l-1.22192,3.05469a1.00046,1.00046,0,0,1-1.85742,0l-1.22192-3.05469a10.964,10.964,0,0,1-13.25171-1.204,25.98718,25.98718,0,0,0,4.82422,20.69519A18.99637,18.99637,0,0,0,23.959,50.98242c-.2937.87933-.855,1.01373-2.249,1.209-1.8418.25732-4.36426.60986-5.6582,4.49219a.99964.99964,0,1,0,1.89648.63281c.76538-2.29529,1.92773-2.78882,3.29028-3.02972l-1.13306,2.26605a1.00012,1.00012,0,0,0,1.78906.89453l1.8186-3.63715a3.219,3.219,0,0,0,2.00439-1.84149A10.27687,10.27687,0,0,0,30,53a10.27687,10.27687,0,0,0,4.28247-1.03137,3.219,3.219,0,0,0,2.00439,1.84149l1.8186,3.63715a1.00012,1.00012,0,0,0,1.78906-.89453l-1.13306-2.26605c1.36255.24091,2.5249.73444,3.29028,3.02972a.99964.99964,0,1,0,1.89648-.63281C42.6543,52.80127,40.13184,52.44873,38.29,52.19141ZM19,34a1,1,0,0,1,2,0,1,1,0,0,0,2,0,1,1,0,0,1,2,0,1,1,0,0,0,2,0,1,1,0,0,1,2,0,1,1,0,0,0,2,0,1,1,0,0,1,2,0,1,1,0,0,0,2,0,1,1,0,0,1,2,0,1,1,0,0,0,2,0,1,1,0,0,1,2,0,2.99863,2.99863,0,0,1-5,2.23438,2.99506,2.99506,0,0,1-4,0,2.99506,2.99506,0,0,1-4,0,2.99506,2.99506,0,0,1-4,0A2.99863,2.99863,0,0,1,19,34Zm2,6a1,1,0,0,1,2,0,1,1,0,0,0,2,0,1,1,0,0,1,2,0,1,1,0,0,0,2,0,1,1,0,0,1,2,0,1,1,0,0,0,2,0,1,1,0,0,1,2,0,1,1,0,0,0,2,0,1,1,0,0,1,2,0,2.99863,2.99863,0,0,1-5,2.23438,2.99506,2.99506,0,0,1-4,0,2.99506,2.99506,0,0,1-4,0A2.99863,2.99863,0,0,1,21,40Zm11,8.23438a2.99506,2.99506,0,0,1-4,0A2.99863,2.99863,0,0,1,23,46a1,1,0,0,1,2,0,1,1,0,0,0,2,0,1,1,0,0,1,2,0,1,1,0,0,0,2,0,1,1,0,0,1,2,0,1,1,0,0,0,2,0,1,1,0,0,1,2,0,2.99863,2.99863,0,0,1-5,2.23438Z"/></g></svg>